<svg xmlns="http://www.w3.org/2000/svg" width="10.618" height="68.018" viewBox="0 0 10.618 68.018">
  <path id="rect21396-2" d="M92.055,253.891c-.078,0-.156,0-.235.007-3.524.02-5.63,3.75-5.038,6.966.067,14.987-.132,29.986.1,44.965a4.95,4.95,0,0,0,3.522,3.927v12.153h3.178V309.835a4.5,4.5,0,0,0,2.452-1.715c2.185-2.985.8-6.963,1.189-10.384-.067-13.2.135-26.419-.1-39.613a5.3,5.3,0,0,0-5.069-4.232Zm-.062,1.755a3.479,3.479,0,0,1,3.446,3.527v45.579a3.448,3.448,0,1,1-6.893,0V259.173A3.481,3.481,0,0,1,91.992,255.646Z" transform="translate(-86.682 -253.891)" fill="#fff"/>
</svg>

