<?xml version="1.0" encoding="UTF-8" standalone="no"?>
<svg
   width="10.634"
   height="114.508"
   viewBox="0 0 10.634 114.508"
   version="1.1"
   id="svg3"
   sodipodi:docname="minutes.svg"
   inkscape:version="1.1.1 (3bf5ae0d25, 2021-09-20)"
   xmlns:inkscape="http://www.inkscape.org/namespaces/inkscape"
   xmlns:sodipodi="http://sodipodi.sourceforge.net/DTD/sodipodi-0.dtd"
   xmlns="http://www.w3.org/2000/svg"
   xmlns:svg="http://www.w3.org/2000/svg">
  <defs
     id="defs7" />
  <sodipodi:namedview
     id="namedview5"
     pagecolor="#ffffff"
     bordercolor="#666666"
     borderopacity="1.0"
     inkscape:pageshadow="2"
     inkscape:pageopacity="0.0"
     inkscape:pagecheckerboard="0"
     showgrid="false"
     inkscape:zoom="30.495685"
     inkscape:cx="6.4927218"
     inkscape:cy="100.35846"
     inkscape:window-width="2560"
     inkscape:window-height="1377"
     inkscape:window-x="-8"
     inkscape:window-y="-8"
     inkscape:window-maximized="1"
     inkscape:current-layer="svg3" />
  <path
     id="rect21396-2-5"
     style="fill:#ffffff"
     d="M 5.4824219 0 C 2.9157519 -0.10425 0.65638137 1.6784387 0.16210938 4.1992188 C -0.059890625 18.615219 0.1135 33.051562 0.0625 47.476562 L 0.05078125 47.476562 C 0.05078125 47.493562 0.057546875 47.508391 0.060546875 47.525391 L 0.060546875 47.994141 L 0.060546875 49.164062 C 0.060546875 49.181062 0.05078125 49.197844 0.05078125 49.214844 L 0.068359375 49.214844 C 0.11435938 63.639844 -0.058890625 78.074234 0.16210938 92.490234 C 0.48732537 94.381394 1.8753294 95.915474 3.7246094 96.427734 L 3.7246094 104.11328 C 3.7244403 104.11473 3.7228305 104.11574 3.7226562 104.11719 A 5.3200002 5.3200002 0 0 0 -0.00390625 109.1875 A 5.3200002 5.3200002 0 0 0 5.3164062 114.50781 A 5.3200002 5.3200002 0 0 0 10.636719 109.1875 A 5.3200002 5.3200002 0 0 0 6.9023438 104.10938 L 6.9023438 96.490234 C 7.8751738 96.211484 8.7264763 95.611302 9.3164062 94.789062 C 11.501406 91.804062 10.116859 87.82725 10.505859 84.40625 C 10.444859 72.37625 10.605031 60.334641 10.457031 48.306641 C 10.601031 36.306641 10.443906 24.299781 10.503906 12.300781 C 10.110906 8.8797813 11.503453 4.9000156 9.3144531 1.9160156 C 8.4231831 0.69447562 6.9943819 -0.01853375 5.4824219 0.00390625 L 5.4824219 0 z M 5.2734375 1.7539062 L 5.2753906 1.7539062 C 7.2018269 1.7730727 8.747374 3.3526883 8.7207031 5.2792969 L 8.7207031 49.21875 L 8.7207031 91.417969 C 8.8341131 96.126019 1.7127579 96.126019 1.8261719 91.417969 L 1.8261719 47.478516 L 1.8261719 5.2792969 C 1.8011805 3.3523684 3.3466879 1.7725327 5.2734375 1.7539062 z M 5.3164062 107.41406 A 1.774 1.774 0 0 1 7.0898438 109.1875 A 1.774 1.774 0 0 1 5.3164062 110.96094 A 1.774 1.774 0 0 1 3.5429688 109.1875 A 1.774 1.774 0 0 1 5.3164062 107.41406 z " />
</svg>
